<svg xmlns="http://www.w3.org/2000/svg" width="192" height="39.554" viewBox="0 0 192 39.554">
  <g id="Groupe_712" data-name="Groupe 712" transform="translate(0.054 -64.05)">
    <g id="Groupe_656" data-name="Groupe 656" transform="translate(-0.054 93.441)" style="mix-blend-mode: normal;isolation: isolate">
      <path id="Tracé_44876" data-name="Tracé 44876" d="M2.931,101.241V92.265H-.054v-.819H6.832v.819h-3v8.976Z" transform="translate(0.054 -91.268)"/>
      <path id="Tracé_44877" data-name="Tracé 44877" d="M12.194,101.241V91.446h.9v4.488h5.349V91.446h.9v9.795h-.9V96.73H13.1v4.51Z" transform="translate(1.025 -91.268)"/>
      <path id="Tracé_44878" data-name="Tracé 44878" d="M25.56,101.241V91.446h4.932v.8h-4.03v3.692H30.35v.8H26.462v3.715h4.03v.8Z" transform="translate(2.085 -91.268)"/>
      <path id="Tracé_44879" data-name="Tracé 44879" d="M60.176,101.444a4.769,4.769,0,0,1-1.923-.391,4.932,4.932,0,0,1-1.573-1.09,5.185,5.185,0,0,1,0-7.2,4.913,4.913,0,0,1,1.573-1.089,4.919,4.919,0,0,1,3.848,0,4.913,4.913,0,0,1,1.573,1.089,5.188,5.188,0,0,1,0,7.2,4.932,4.932,0,0,1-1.573,1.09A4.77,4.77,0,0,1,60.176,101.444Zm0-.873a3.766,3.766,0,0,0,1.555-.319,3.911,3.911,0,0,0,1.262-.9,4.149,4.149,0,0,0,.846-1.342,4.654,4.654,0,0,0,0-3.3,4.154,4.154,0,0,0-.846-1.343,3.928,3.928,0,0,0-1.262-.9,3.951,3.951,0,0,0-3.113,0,3.893,3.893,0,0,0-1.262.9,4.229,4.229,0,0,0-.846,1.343,4.608,4.608,0,0,0,0,3.3,4.223,4.223,0,0,0,.846,1.342,3.877,3.877,0,0,0,1.262.9A3.787,3.787,0,0,0,60.176,100.571Z" transform="translate(4.439 -91.281)"/>
      <path id="Tracé_44880" data-name="Tracé 44880" d="M70.577,101.241V91.446h2.541a3.831,3.831,0,0,1,1.662.333,2.5,2.5,0,0,1,1.084.949,2.765,2.765,0,0,1,.383,1.484,2.925,2.925,0,0,1-.383,1.511,2.6,2.6,0,0,1-1.084,1.008,3.583,3.583,0,0,1-1.662.359H71.479v4.15Zm.9-4.91H72.9a2.972,2.972,0,0,0,1.279-.255,1.934,1.934,0,0,0,.841-.727,2.048,2.048,0,0,0,.3-1.113,2.012,2.012,0,0,0-.3-1.113,1.88,1.88,0,0,0-.841-.7,3.145,3.145,0,0,0-1.279-.24H71.479Z" transform="translate(5.656 -91.268)"/>
      <path id="Tracé_44881" data-name="Tracé 44881" d="M81.891,101.241V91.446h4.932v.8h-4.03v3.692h3.888v.8H82.793v3.715h4.03v.8Z" transform="translate(6.553 -91.268)"/>
      <path id="Tracé_44882" data-name="Tracé 44882" d="M92.692,101.241V91.446h.9L98.854,99.7V91.446h.9v9.795h-.9L93.594,93v8.245Z" transform="translate(7.409 -91.268)"/>
      <path id="Tracé_44883" data-name="Tracé 44883" d="M129.752,101.444a5.348,5.348,0,0,1-2.042-.385,5.084,5.084,0,0,1-1.647-1.077,4.949,4.949,0,0,1-1.1-1.619,5.3,5.3,0,0,1,0-4,4.962,4.962,0,0,1,1.1-1.617,5.071,5.071,0,0,1,1.645-1.078,5.34,5.34,0,0,1,2.044-.385,5.442,5.442,0,0,1,1.728.27,4.885,4.885,0,0,1,1.425.74l-.428.753a3.769,3.769,0,0,0-1.211-.648,4.662,4.662,0,0,0-1.459-.226,4.417,4.417,0,0,0-1.706.321,4.093,4.093,0,0,0-1.345.89,3.994,3.994,0,0,0-.882,1.336,4.487,4.487,0,0,0,0,3.288,3.983,3.983,0,0,0,.882,1.336,4.059,4.059,0,0,0,1.345.89,4.417,4.417,0,0,0,1.706.321,4.662,4.662,0,0,0,1.459-.226,3.767,3.767,0,0,0,1.211-.646l.428.753a4.95,4.95,0,0,1-1.417.736A5.352,5.352,0,0,1,129.752,101.444Z" transform="translate(9.938 -91.281)"/>
      <path id="Tracé_44884" data-name="Tracé 44884" d="M138.04,101.241V91.446h2.542a3.833,3.833,0,0,1,1.661.333,2.492,2.492,0,0,1,1.083.952,2.758,2.758,0,0,1,.384,1.481,2.911,2.911,0,0,1-.324,1.392,2.569,2.569,0,0,1-.914.974,3.226,3.226,0,0,1-1.4.454l3.258,4.208h-1.145l-3.122-4.125h-1.116v4.125Zm.9-4.91h1.425a2.99,2.99,0,0,0,1.289-.255,1.914,1.914,0,0,0,.833-.727,2.056,2.056,0,0,0,.295-1.113,1.878,1.878,0,0,0-.641-1.508,2.658,2.658,0,0,0-1.775-.545h-1.425Z" transform="translate(11.006 -91.268)"/>
      <path id="Tracé_44885" data-name="Tracé 44885" d="M148.627,101.241l3.859-9.795h.838l3.852,9.795H156.2l-1.194-3.121H150.8l-1.207,3.121Zm2.476-3.918h3.6l-1.8-4.689Z" transform="translate(11.845 -91.268)"/>
      <path id="Tracé_44886" data-name="Tracé 44886" d="M164.005,101.241V92.265H161.02v-.819H167.9v.819h-3v8.976Z" transform="translate(12.828 -91.268)"/>
      <path id="Tracé_44887" data-name="Tracé 44887" d="M173.268,101.241V91.446H178.2v.8h-4.03v3.692h3.888v.8H174.17v3.715h4.03v.8Z" transform="translate(13.8 -91.268)"/>
    </g>
    <rect id="Rectangle_1556" data-name="Rectangle 1556" width="4.252" height="12.635" transform="translate(0.004 68.074)" style="mix-blend-mode: normal;isolation: isolate"/>
    <rect id="Rectangle_1557" data-name="Rectangle 1557" width="16.881" height="16.66" transform="translate(58.887 64.05)"/>
    <rect id="Rectangle_1558" data-name="Rectangle 1558" width="15.136" height="8.488" transform="translate(133.627 72.213)"/>
  </g>
</svg>
